<svg width="26" height="32" viewBox="0 0 26 32" fill="none" xmlns="http://www.w3.org/2000/svg">
<path fill-rule="evenodd" clip-rule="evenodd" d="M14.328 18.4155H21.1894V10.5392H26L17.7587 -7.43866e-05L9.51742 10.5392H14.328V18.4155Z" fill="#4737A4"/>
<path d="M12.3024 12.4522C12.3201 12.456 12.3383 12.4584 12.3556 12.4631C12.3909 12.4727 12.4248 12.4867 12.4563 12.5051C12.5514 12.5607 12.622 12.6536 12.6503 12.7609C12.663 12.8083 12.6613 12.8211 12.6645 12.87V20.3251H17.0584L17.113 20.3289C17.131 20.3324 17.1492 20.3347 17.1668 20.3397C17.2024 20.3493 17.2362 20.3636 17.268 20.3823C17.3961 20.4578 17.4765 20.6004 17.4751 20.7507C17.4748 20.7875 17.4696 20.8243 17.4595 20.86C17.4496 20.8956 17.4352 20.9298 17.4164 20.9617C17.4071 20.9778 9.14386 31.5469 9.14386 31.5469C9.08256 31.6124 9.05364 31.6343 9.02241 31.6521C8.89633 31.7243 8.73787 31.7243 8.61179 31.6521C8.58056 31.6343 8.55164 31.6124 8.5262 31.5869C8.51347 31.5744 0.249052 21.0076 0.249052 21.0076C0.199026 20.9298 0.184568 20.8956 0.174736 20.86C0.134542 20.7156 0.175314 20.5566 0.279703 20.4499C0.305439 20.4236 0.334646 20.4008 0.366165 20.3823C0.413877 20.3543 0.466505 20.3359 0.521158 20.3289C0.539087 20.3262 0.557594 20.3262 0.575811 20.3251H4.96972V12.87C4.98273 12.7671 4.98273 12.7542 5.00124 12.7089C5.04346 12.6063 5.12529 12.5233 5.22679 12.4809C5.26033 12.4669 5.2959 12.4572 5.33176 12.4522C5.34998 12.4499 5.36819 12.4499 5.38641 12.4487H12.2478C12.266 12.4499 12.2842 12.4511 12.3024 12.4522Z" fill="#4737A4"/>
</svg>
